<svg id="Capa_1" enable-background="new 0 0 512 512" height="512" viewBox="0 0 512 512" width="512" xmlns="http://www.w3.org/2000/svg"><g><path d="m512 331v60l-22.5 15h-69.699l-28.801-15v-60z" fill="#ffea80"/><path d="m512 331v60l-22.5 15h-38.5v-75z" fill="#ffc34d"/><path d="m391 391v60l-22.5 15h-68.699l-28.801-15v-60z" fill="#ffc34d"/><path d="m391 391v60l-22.5 15h-37.5v-75z" fill="#f93"/><path d="m512 391v60l-22.5 15h-69.699l-28.801-15v-60z" fill="#ffc34d"/><path d="m512 391v60l-22.5 15h-38.5v-75z" fill="#f93"/><path d="m512 451v61h-121l-30-30 30-31z" fill="#ffea80"/><path d="m451 451h61v61h-61z" fill="#ffc34d"/><path d="m391 451v61h-120l-30-30 30-31z" fill="#ffea80"/><path d="m331 451h60v61h-60z" fill="#ffc34d"/><g><path d="m136 0c-74.559 0-136 61.441-136 136s61.441 135 136 135 135-60.441 135-135-60.441-136-135-136z" fill="#ffea80"/><path d="m271 136c0-74.559-60.441-136-135-136v271c74.559 0 135-60.441 135-135z" fill="#ffc34d"/><path d="m136 121c-8.276 0-15-6.724-15-15s6.724-15 15-15 15 6.724 15 15h30c0-19.53-12.578-36.024-30-42.237v-32.763h-15-15v32.763c-17.422 6.213-30 22.707-30 42.237 0 24.814 20.186 45 45 45 8.276 0 15 6.724 15 15s-6.724 15-15 15-15-6.724-15-15h-30c0 19.53 12.578 36.024 30 42.237v32.763h15 15v-32.763c17.422-6.213 30-22.707 30-42.237 0-24.814-20.186-45-45-45z" fill="#ffc34d"/><g fill="#f93"><path d="m151 208.237c17.422-6.213 30-22.707 30-42.237 0-24.814-20.186-45-45-45v30c8.276 0 15 6.724 15 15s-6.724 15-15 15v60h15z"/><path d="m151 106h30c0-19.53-12.578-36.024-30-42.237v-32.763h-15v60c8.276 0 15 6.724 15 15z"/></g></g><path d="m151 451h120v61h-120z" fill="#ffea80"/><path d="m211 451h60v61h-60z" fill="#ffc34d"/><path d="m472.709 1-73.418 36.709 13.418 26.836 26.263-13.13c-16.359 39.658-50.058 106.81-107.972 168.499-69.988 74.547-176.461 141.086-331 141.086v30c148.885 0 256.579-59.597 331-130.633 75.707-72.263 118.015-156.363 136.963-201.769l14.619 29.238 26.836-13.418z" fill="#8adb53"/><path d="m467.963 58.598 14.619 29.238 26.836-13.418-36.709-73.418-73.418 36.709 13.418 26.836 26.263-13.13c-16.359 39.658-50.058 106.81-107.972 168.499v40.453c75.707-72.263 118.015-156.363 136.963-201.769z" fill="#4fc16e"/></g></svg>