<svg id="Capa_1" enable-background="new 0 0 512 512" height="512" viewBox="0 0 512 512" width="512" xmlns="http://www.w3.org/2000/svg"><path d="m81.863 244.25v-203.319c0-20.535-16.647-37.181-37.181-37.181-20.535 0-37.182 16.647-37.182 37.181v184.42c0 20.535 16.647 37.181 37.181 37.181 11.435 0 21.664-5.162 28.485-13.283z" fill="#9cc042"/><path d="m148.863 309.25v-103.075c0-20.535-16.647-37.181-37.181-37.181-20.535 0-37.181 16.647-37.181 37.181v140.42c0 10.98 4.76 20.849 12.329 27.655l4.171 3z" fill="#c5e866"/><path d="m45.171 506.25c-4.142 0-7.5-3.358-7.5-7.5v-393.027c0-4.142 3.358-7.5 7.5-7.5s7.5 3.358 7.5 7.5v393.027c0 4.142-3.358 7.5-7.5 7.5z" fill="#b07a46"/><path d="m467.319 339.215c-20.535 0-37.181-16.647-37.181-37.181v-151.42c0-20.535 16.647-37.181 37.181-37.181 20.535 0 37.181 16.647 37.181 37.181v151.42c0 20.534-16.647 37.181-37.181 37.181z" fill="#9cc042"/><path d="m467.319 113.432c-5.928 0-11.527 1.394-16.5 3.861 12.254 6.08 20.681 18.713 20.681 33.32v151.42c0 14.607-8.427 27.24-20.681 33.32 4.973 2.467 10.572 3.861 16.5 3.861 20.535 0 37.181-16.647 37.181-37.181v-151.42c0-20.535-16.647-37.181-37.181-37.181z" fill="#85aa18"/><path d="m466.829 508.25c-4.143 0-7.5-3.358-7.5-7.5v-285.346c0-4.142 3.357-7.5 7.5-7.5s7.5 3.358 7.5 7.5v285.346c0 4.142-3.357 7.5-7.5 7.5z" fill="#b07a46"/><path d="m112.171 375.25c-4.142 0-7.5-3.358-7.5-7.5v-118.784c0-4.142 3.358-7.5 7.5-7.5s7.5 3.358 7.5 7.5v118.784c0 4.142-3.358 7.5-7.5 7.5z" fill="#b07a46"/><path d="" style="fill:none;stroke:#060606;stroke-width:15;stroke-linecap:round;stroke-linejoin:round;stroke-miterlimit:10"/><path d="m256 113.978c-4.142 0-7.5 3.358-7.5 7.5v98.272c0 4.142 3.358 7.5 7.5 7.5 4.143 0 7.5-3.358 7.5-7.5v-98.272c0-4.143-3.357-7.5-7.5-7.5z" fill="#ffd775"/><path d="m401.5 394.921 67.914 104.25h-426.828l208.914-326.421z" fill="#ffd775"/><path d="m401.5 394.921-150-222.171-16.059 25.092 133.059 197.079 67.914 104.25h33z" fill="#ffcd52"/><path d="m256 275.25-101.441 223.921h202.882z" fill="#48494d"/><path d="m348.461 394.496h90.36l-182.821-241.015-182.821 241.015h90.36l92.461-121.892z" fill="#ffc026"/><path d="m256 153.481-16.5 21.752 166.321 219.263h33z" fill="#f7b30c"/><circle cx="343.038" cy="127.747" fill="#f7b30c" r="34.81"/><path d="m215.5 98.75c13.255 0 24-10.745 24-24s-10.745-24-24-24c-4.381 0-8.484 1.18-12.02 3.23-.407-12.897-10.984-23.23-23.98-23.23-12.51 0-22.78 9.573-23.895 21.793-2.808-1.153-5.881-1.793-9.105-1.793-13.255 0-24 10.745-24 24s10.745 24 24 24z" fill="#e0f5ff"/><path d="m480.5 71.75c13.255 0 24-10.745 24-24s-10.745-24-24-24c-4.381 0-8.484 1.18-12.02 3.23-.407-12.897-10.984-23.23-23.98-23.23-12.51 0-22.78 9.573-23.895 21.793-2.808-1.153-5.881-1.793-9.105-1.793-13.255 0-24 10.745-24 24s10.745 24 24 24z" fill="#e0f5ff"/><path d="m504.5 508.25h-497c-4.142 0-7.5-3.358-7.5-7.5s3.358-7.5 7.5-7.5h497c4.143 0 7.5 3.358 7.5 7.5s-3.357 7.5-7.5 7.5z" fill="#9cc042"/></svg>