<svg width="1920" height="536" viewBox="0 0 1920 536" fill="none" xmlns="http://www.w3.org/2000/svg">
<g clip-path="url(#clip0)">
<path d="M1920.5 571V130.5L1630.5 331.5C1403.33 387.667 942.1 500.6 914.5 503C886.9 505.4 266.5 398.333 -24.5 344.5V571H1920.5Z" fill="white"/>
<path d="M1915.61 129.786C1914.51 130.286 1900.3 136.082 1884.08 142.677C1806.39 174.056 1744.33 202.237 1618.79 262.696C1443.89 347.039 1368.61 379.217 1261.89 415.593C1177.1 444.373 1097.01 457.864 989.093 461.462C951.151 462.661 875.067 461.462 842.932 459.063C839.328 458.764 829.217 458.064 820.407 457.564C719.596 450.869 608.773 435.579 433.981 404.101C398.742 397.805 357.496 390.51 342.38 388.011C308.743 382.515 273.304 376.219 186.908 360.63C93.3051 343.541 9.01214 329.651 0.00220764 329.651C-2 329.651 -2 330.55 -2 376.619V423.587L0.302539 424.087C4.10673 424.887 217.542 455.166 264.294 461.462C492.645 492.341 642.811 507.031 806.391 514.726C842.932 516.425 978.281 516.425 1007.11 514.726C1067.58 511.128 1111.43 506.431 1152.77 498.937C1203.13 489.743 1323.46 458.664 1405.05 433.581C1521.68 397.805 1605.37 366.726 1793.78 289.278C1837.13 271.49 1883.18 252.603 1896.09 247.406L1919.62 237.813L1919.92 183.35C1920.12 125.589 1920.32 127.687 1915.61 129.786Z" fill="#F8BF31"/>
</g>
<defs>
<clipPath id="clip0">
<rect width="1920" height="536" fill="white"/>
</clipPath>
</defs>
</svg>
