<svg width="13" height="13" viewBox="0 0 13 13" fill="none" xmlns="http://www.w3.org/2000/svg">
<circle cx="6.5" cy="6.5" r="6.5" fill="#777777"/>
<path d="M3.79492 10V2.17969H6.4751C7.35954 2.17969 8.03271 2.35693 8.49463 2.71143C8.95654 3.06592 9.1875 3.59408 9.1875 4.2959C9.1875 4.65397 9.09082 4.97624 8.89746 5.2627C8.7041 5.54915 8.42122 5.77116 8.04883 5.92871C8.47135 6.04329 8.7972 6.25993 9.02637 6.57861C9.25911 6.89372 9.37549 7.27327 9.37549 7.71729C9.37549 8.45133 9.13916 9.0153 8.6665 9.40918C8.19743 9.80306 7.52425 10 6.64697 10H3.79492ZM5.15381 6.47119V8.91504H6.66309C7.08919 8.91504 7.4222 8.80941 7.66211 8.59814C7.90202 8.38688 8.02197 8.09326 8.02197 7.71729C8.02197 6.90446 7.60661 6.4891 6.77588 6.47119H5.15381ZM5.15381 5.47217H6.48584C6.90837 5.47217 7.23779 5.37728 7.47412 5.1875C7.71403 4.99414 7.83398 4.72201 7.83398 4.37109C7.83398 3.98438 7.72298 3.70508 7.50098 3.5332C7.28255 3.36133 6.94059 3.27539 6.4751 3.27539H5.15381V5.47217Z" fill="white"/>
</svg>
