<svg width="13" height="13" viewBox="0 0 13 13" fill="none" xmlns="http://www.w3.org/2000/svg">
<path d="M9.44312 5.92617L4.56812 5.12383C4.00388 5.03242 3.61118 4.73535 3.61118 4.40527C3.61118 3.99141 4.20701 3.65625 4.94277 3.65625H7.93548C8.48618 3.65625 9.02784 3.7502 9.47923 3.92285C9.75458 4.02695 10.1247 4.00156 10.3594 3.87207L11.9303 3.00879C12.2508 2.83359 12.2056 2.5416 11.849 2.38672C10.7431 1.89922 9.36187 1.62754 7.94451 1.625V0.40625C7.94451 0.182812 7.61951 0 7.22229 0H5.77784C5.38062 0 5.05562 0.182812 5.05562 0.40625V1.625H4.94277C2.06743 1.625 -0.243685 3.01387 0.0226339 4.66172C0.212217 5.83223 1.80111 6.78438 3.80527 7.11445L8.43201 7.87617C8.99624 7.97012 9.38895 8.26465 9.38895 8.59473C9.38895 9.00859 8.79312 9.34375 8.05736 9.34375H5.06465C4.51395 9.34375 3.97229 9.2498 3.5209 9.07715C3.24555 8.97305 2.87541 8.99844 2.64069 9.12793L1.06986 9.99121C0.74937 10.1664 0.794509 10.4584 1.15111 10.6133C2.25701 11.1008 3.63826 11.3725 5.05562 11.375V12.5938C5.05562 12.8172 5.38062 13 5.77784 13H7.22229C7.61951 13 7.94451 12.8172 7.94451 12.5938V11.3699C10.048 11.3471 12.0206 10.6438 12.7157 9.52402C13.6862 7.95996 12.0567 6.35527 9.44312 5.92617Z" fill="#777777"/>
</svg>
