<svg width="13" height="16" viewBox="0 0 13 16" fill="none" xmlns="http://www.w3.org/2000/svg">
<circle cx="6.5" cy="9.50001" r="6.5" fill="#777777"/>
<path d="M8.27051 13C8.19759 12.8587 8.13379 12.6286 8.0791 12.3096C7.55046 12.861 6.90332 13.1367 6.1377 13.1367C5.39486 13.1367 4.78874 12.9248 4.31934 12.501C3.84993 12.0772 3.61523 11.5531 3.61523 10.9287C3.61523 10.1403 3.9069 9.53647 4.49023 9.1172C5.07812 8.69337 5.91667 8.48145 7.00586 8.48145H8.02441V7.9961C8.02441 7.61329 7.91732 7.30795 7.70312 7.08009C7.48893 6.84766 7.16309 6.73145 6.72559 6.73145C6.34733 6.73145 6.03743 6.82716 5.7959 7.01856C5.55436 7.20541 5.43359 7.44467 5.43359 7.73634H3.77246C3.77246 7.33074 3.9069 6.95248 4.17578 6.60157C4.44466 6.2461 4.80924 5.96811 5.26953 5.76759C5.73438 5.56706 6.25163 5.4668 6.82129 5.4668C7.68717 5.4668 8.3776 5.68555 8.89258 6.12305C9.40755 6.556 9.67188 7.16667 9.68555 7.95509V11.291C9.68555 11.9564 9.77897 12.4873 9.96582 12.8838V13H8.27051ZM6.44531 11.8037C6.77344 11.8037 7.08105 11.724 7.36816 11.5645C7.65983 11.405 7.87858 11.1908 8.02441 10.9219V9.52735H7.12891C6.51367 9.52735 6.05111 9.63445 5.74121 9.84864C5.43132 10.0628 5.27637 10.3659 5.27637 10.7578C5.27637 11.0768 5.38118 11.332 5.59082 11.5234C5.80501 11.7103 6.08984 11.8037 6.44531 11.8037Z" fill="white"/>
</svg>
