<svg width="13" height="13" viewBox="0 0 13 13" fill="none" xmlns="http://www.w3.org/2000/svg">
<path d="M0 6.5C0 2.90927 2.90927 0 6.5 0C10.0907 0 13 2.90927 13 6.5C13 10.0907 10.0907 13 6.5 13C2.90927 13 0 10.0907 0 6.5ZM3.76371 7.25746L5.66129 5.27863V10.0645C5.66129 10.4131 5.94173 10.6935 6.29032 10.6935H6.70968C7.05827 10.6935 7.33871 10.4131 7.33871 10.0645V5.27863L9.23629 7.25746C9.48004 7.51169 9.88629 7.51693 10.1353 7.26794L10.421 6.97964C10.6673 6.73327 10.6673 6.33488 10.421 6.09113L6.94556 2.6131C6.69919 2.36673 6.30081 2.36673 6.05706 2.6131L2.57641 6.09113C2.33004 6.3375 2.33004 6.73589 2.57641 6.97964L2.8621 7.26794C3.11371 7.51693 3.51996 7.51169 3.76371 7.25746Z" fill="#777777"/>
</svg>
